<svg viewBox="0 0 618 868" fill="none" xmlns="http://www.w3.org/2000/svg">
<g clip-path="url(#clip0_601_9)">
<rect width="618" height="868" fill="white"/>
<path d="M58.772 0H97.7641V38.6531H133.705V0H172.697V116.977H133.705V77.9844H98.1032V116.977H58.772M224.234 38.9922H189.82V0H297.811V38.9922H263.227V116.977H224.234M314.934 0H355.791L380.881 41.1961L405.972 0H446.829V116.977H407.837V58.9969L380.542 101.041L353.248 58.9969V116.977H314.934M466.156 0H505.148V78.3234H560.415V116.977H466.156" fill="black"/>
<path d="M57.4155 798.492L1.47021 170.548H616.53L560.584 798.153L308.491 868" fill="#E44D26"/>
<path d="M309 814.598V222.086H560.415L512.438 757.805" fill="#F16529"/>
<path d="M115.734 298.884H309V375.851H200.161L207.281 454.683H309V531.48H136.756M140.147 570.134H217.453L222.878 631.673L309 654.73V735.087L150.997 691.009" fill="#EBEBEB"/>
<path d="M501.588 298.884H308.661V375.851H494.467M487.517 454.683H308.661V531.65H403.599L394.613 631.673L308.661 654.73V734.748L466.325 691.009" fill="white"/>
</g>
<defs>
<clipPath id="clip0_601_9">
<rect width="618" height="868" fill="white"/>
</clipPath>
</defs>
</svg>
